<svg width="82" height="82" viewBox="0 0 82 82" fill="none" xmlns="http://www.w3.org/2000/svg">
<circle cx="41" cy="41" r="41" fill="#FFE500"/>
<g clip-path="url(#clip0)">
<path d="M41 30.875C40.2212 30.875 39.46 30.6441 38.8124 30.2114C38.1649 29.7788 37.6602 29.1638 37.3622 28.4443C37.0642 27.7248 36.9862 26.9331 37.1382 26.1693C37.2901 25.4055 37.6651 24.7039 38.2158 24.1533C38.7664 23.6026 39.468 23.2276 40.2318 23.0757C40.9956 22.9237 41.7873 23.0017 42.5068 23.2997C43.2263 23.5977 43.8413 24.1024 44.2739 24.7499C44.7066 25.3975 44.9375 26.1587 44.9375 26.9375C44.9364 27.9814 44.5212 28.9823 43.783 29.7205C43.0448 30.4587 42.0439 30.8739 41 30.875Z" fill="black"/>
<path d="M53.375 30.9312L53.3434 30.9396L53.3139 30.9487C53.2435 30.9684 53.1732 30.9895 53.1029 31.0113C51.7944 31.3952 45.4438 33.1854 40.9698 33.1854C36.8122 33.1854 31.036 31.6385 29.1882 31.1133C29.0043 31.0422 28.8165 30.9816 28.6257 30.9319C27.2898 30.5803 26.3757 31.9373 26.3757 33.1776C26.3757 34.406 27.4796 34.991 28.5941 35.4108V35.4304L35.2892 37.5215C35.9734 37.7838 36.1562 38.0517 36.2455 38.2837C36.5359 39.0283 36.3039 40.5028 36.2216 41.0175L35.8138 44.1815L33.5504 56.5699C33.5434 56.6037 33.5371 56.6381 33.5314 56.6733L33.5153 56.7626C33.3521 57.8981 34.186 58.9999 35.7653 58.9999C37.1434 58.9999 37.7516 58.0486 38.0153 56.7541C38.2789 55.4597 39.984 45.675 40.9684 45.675C41.9528 45.675 43.9806 56.7541 43.9806 56.7541C44.2442 58.0486 44.8524 58.9999 46.2306 58.9999C47.814 58.9999 48.6479 57.8932 48.4806 56.7541C48.4662 56.6584 48.4484 56.5631 48.4271 56.4687L46.1328 44.1829L45.7257 41.0189C45.4311 39.176 45.6681 38.5671 45.7482 38.4244C45.7504 38.421 45.7523 38.4175 45.7539 38.4138C45.8298 38.2732 46.1757 37.9582 46.9829 37.6551L53.2604 35.4607C53.299 35.4504 53.337 35.4382 53.3743 35.4241C54.4993 35.0022 55.6243 34.4187 55.6243 33.179C55.6243 31.9394 54.711 30.5803 53.375 30.9312Z" fill="black"/>
</g>
<defs>
<clipPath id="clip0">
<rect width="36" height="36" fill="white" transform="translate(23 23)"/>
</clipPath>
</defs>
</svg>
