<svg width="150" height="150" viewBox="0 0 220 220" fill="none" xmlns="http://www.w3.org/2000/svg">
<circle cx="110" cy="110" r="110" fill="#FFE500"/>
<g clip-path="url(#clip0)">
<path d="M87.5 130.5C87.1266 130.5 86.7531 130.56 86.3969 130.687C84.3719 131.411 82.2422 131.875 80 131.875C77.7578 131.875 75.6281 131.411 73.6016 130.687C73.2453 130.56 72.8734 130.5 72.5 130.5C62.8031 130.5 54.9484 139.176 55 149.857C55.0219 154.37 58.3953 158 62.5 158H97.5C101.605 158 104.978 154.37 105 149.857C105.052 139.176 97.1969 130.5 87.5 130.5ZM80 125C88.2844 125 95 117.613 95 108.5C95 99.3872 88.2844 92 80 92C71.7156 92 65 99.3872 65 108.5C65 117.613 71.7156 125 80 125ZM147.5 70H87.5C83.3641 70 80 73.8242 80 78.5233V86.5C83.6594 86.5 87.0469 87.6653 90 89.5594V81H145V130.5H135V119.5H115V130.5H103.088C106.072 133.369 108.263 137.157 109.289 141.5H147.5C151.636 141.5 155 137.676 155 132.977V78.5233C155 73.8242 151.636 70 147.5 70Z" fill="black"/>
</g>
<defs>
<clipPath id="clip0">
<rect width="100" height="88" fill="white" transform="translate(55 70)"/>
</clipPath>
</defs>
</svg>
