<svg width="150" height="150" viewBox="0 0 220 220" fill="none" xmlns="http://www.w3.org/2000/svg">
<circle cx="110" cy="110" r="110" fill="#FFE500"/>
<g clip-path="url(#clip0)">
<path d="M140.488 73.5504L157.4 92.5769C158.112 93.3785 158.112 94.6863 157.4 95.4879L116.45 141.557L99.05 143.729C96.725 144.025 94.7563 141.81 95.0188 139.194L96.95 119.619L137.9 73.5504C138.612 72.7488 139.775 72.7488 140.488 73.5504ZM170.862 68.7199L161.712 58.4262C158.862 55.2199 154.231 55.2199 151.363 58.4262L144.725 65.8934C144.013 66.6949 144.013 68.0027 144.725 68.8043L161.638 87.8308C162.35 88.6324 163.513 88.6324 164.225 87.8308L170.862 80.3637C173.712 77.1363 173.712 71.9262 170.862 68.7199V68.7199ZM137 129.027V150.5H77V83.0004H120.087C120.687 83.0004 121.25 82.7262 121.681 82.2621L129.181 73.8246C130.606 72.2215 129.594 69.5004 127.587 69.5004H74C69.0312 69.5004 65 74.0355 65 79.6254V153.875C65 159.465 69.0312 164 74 164H140C144.969 164 149 159.465 149 153.875V120.589C149 118.332 146.581 117.214 145.156 118.796L137.656 127.234C137.244 127.719 137 128.352 137 129.027Z" fill="black"/>
</g>
<defs>
<clipPath id="clip0">
<rect width="108" height="108" fill="white" transform="translate(65 56)"/>
</clipPath>
</defs>
</svg>
