<svg width="82" height="82" viewBox="0 0 82 82" fill="none" xmlns="http://www.w3.org/2000/svg">
<circle cx="41" cy="41" r="41" fill="#FFE500"/>
<path d="M55.7 31.55C55.7 30.1577 55.1469 28.8223 54.1624 27.8377C53.1778 26.8532 51.8424 26.3 50.45 26.3H31.55C30.1577 26.3 28.8223 26.8532 27.8377 27.8377C26.8532 28.8223 26.3 30.1577 26.3 31.55V32.6H55.7V31.55Z" fill="black"/>
<path d="M55.7 40.16V34.7H26.3V50.45C26.3 51.8423 26.8532 53.1777 27.8377 54.1623C28.8223 55.1468 30.1577 55.7 31.55 55.7H40.16C39.0495 53.526 38.6563 51.0561 39.0369 48.6447C39.4175 46.2334 40.5524 44.0047 42.2786 42.2785C44.0048 40.5523 46.2335 39.4174 48.6448 39.0368C51.0562 38.6562 53.5261 39.0494 55.7 40.16Z" fill="black"/>
<path d="M50.45 59.9C52.9563 59.9 55.3599 58.9044 57.1322 57.1322C58.9044 55.3599 59.9 52.9563 59.9 50.45C59.9 47.9437 58.9044 45.5401 57.1322 43.7678C55.3599 41.9956 52.9563 41 50.45 41C47.9437 41 45.5401 41.9956 43.7678 43.7678C41.9956 45.5401 41 47.9437 41 50.45C41 52.9563 41.9956 55.3599 43.7678 57.1322C45.5401 58.9044 47.9437 59.9 50.45 59.9ZM49.4 46.25C49.4 45.9715 49.5106 45.7044 49.7075 45.5075C49.9044 45.3106 50.1715 45.2 50.45 45.2C50.7285 45.2 50.9955 45.3106 51.1925 45.5075C51.3894 45.7044 51.5 45.9715 51.5 46.25V49.4H53.6C53.8785 49.4 54.1455 49.5106 54.3425 49.7075C54.5394 49.9044 54.65 50.1715 54.65 50.45C54.65 50.7285 54.5394 50.9955 54.3425 51.1925C54.1455 51.3894 53.8785 51.5 53.6 51.5H50.45C50.1715 51.5 49.9044 51.3894 49.7075 51.1925C49.5106 50.9955 49.4 50.7285 49.4 50.45V46.25Z" fill="black"/>
</svg>
