<svg width="150" height="150" viewBox="0 0 220 220" fill="none" xmlns="http://www.w3.org/2000/svg">
<circle cx="110" cy="110" r="110" fill="#FFE500"/>
<path d="M147 66.5H127C127 59.0539 119.825 53 111 53C102.175 53 95 59.0539 95 66.5H75C68.375 66.5 63 71.0352 63 76.625V150.875C63 156.465 68.375 161 75 161H147C153.625 161 159 156.465 159 150.875V76.625C159 71.0352 153.625 66.5 147 66.5ZM87 142.438C83.675 142.438 81 140.18 81 137.375C81 134.57 83.675 132.312 87 132.312C90.325 132.312 93 134.57 93 137.375C93 140.18 90.325 142.438 87 142.438ZM87 122.188C83.675 122.188 81 119.93 81 117.125C81 114.32 83.675 112.062 87 112.062C90.325 112.062 93 114.32 93 117.125C93 119.93 90.325 122.188 87 122.188ZM87 101.938C83.675 101.938 81 99.6805 81 96.875C81 94.0695 83.675 91.8125 87 91.8125C90.325 91.8125 93 94.0695 93 96.875C93 99.6805 90.325 101.938 87 101.938ZM111 61.4375C114.325 61.4375 117 63.6945 117 66.5C117 69.3055 114.325 71.5625 111 71.5625C107.675 71.5625 105 69.3055 105 66.5C105 63.6945 107.675 61.4375 111 61.4375ZM143 139.062C143 139.991 142.1 140.75 141 140.75H105C103.9 140.75 103 139.991 103 139.062V135.688C103 134.759 103.9 134 105 134H141C142.1 134 143 134.759 143 135.688V139.062ZM143 118.812C143 119.741 142.1 120.5 141 120.5H105C103.9 120.5 103 119.741 103 118.812V115.438C103 114.509 103.9 113.75 105 113.75H141C142.1 113.75 143 114.509 143 115.438V118.812ZM143 98.5625C143 99.4906 142.1 100.25 141 100.25H105C103.9 100.25 103 99.4906 103 98.5625V95.1875C103 94.2594 103.9 93.5 105 93.5H141C142.1 93.5 143 94.2594 143 95.1875V98.5625Z" fill="black"/>
</svg>
